<svg xmlns="http://www.w3.org/2000/svg" width="100" height="100" viewBox="0 0 2700 791" fill="none"><path d="M352.8 268.6C332.6 299.7 297.3 316.5 238.4 316.5 238.4 316.5 213.2 316.5 209.9 316.5 203.1 316.5 199.8 313.2 199.8 306.4V109.6C199.8 101.2 203.1 97 212.4 97H238.4C286.4 97 319.2 108 344.4 134.9 362.9 155.1 370.5 181.1 370.5 206.4 370.5 229.9 362.9 253.5 352.8 268.6ZM500.8 272C509.3 251.8 514.3 226.5 514.3 203 514.3 160.1 501.7 115.5 467.2 82.7 410.9 28.9 328.4 28.1 219.1 28.1H34.1C14.7 28.1 6.3 37.3 6.3 47.4 6.3 64.2 21.5 66.7 36.6 76 58.5 88.6 60.1 108 60.1 137.4V458.7C60.1 516.7 55.9 534.4 51.7 546.1 46.7 560.4 37.4 573 21.5 582.3 9.7 589 0.4 594.1 0.4 606.7 0.4 621 14.7 628.6 32.4 628.6H227.5C246 628.6 259.5 621 259.5 606.7 259.5 594.1 250.2 588.2 239.3 582.3 222.5 573 213.2 560.4 208.2 546.1 204 534.4 199.8 516.7 199.8 458.7 199.8 458.7 199.8 400.6 199.8 399 199.8 393.1 201.4 387.2 209.9 387.2H267.9C391.5 387.2 468.9 349.3 500.8 272ZM605.9 330.8C615.1 277.8 648.8 243.4 695.9 243.4 738.8 243.4 764 277.8 764 309 764 340.9 741.3 346 711 346 711 346 615.1 346 613.4 346 607.6 346 605 342.6 605 338.4 605 336.7 605 335.9 605.9 330.8ZM861.6 517.5C841.4 517.5 817.8 552 751.4 552 700.9 552 657.2 533.5 628.6 488.9 610.9 461.2 607.6 434.3 606.7 425.9 605.9 419.1 605.9 417.5 605.9 415.8 605.9 409.9 610.1 408.2 615.1 408.2H817C866.6 408.2 888.5 400.6 888.5 351.9 888.5 246.7 795.1 180.3 700.1 180.3 568.9 180.3 475.5 294.7 475.5 420.8 475.5 552.9 568 637.8 690.8 637.8 741.3 637.8 791.7 622.7 829.6 597.4 854.8 580.6 880.1 553.7 880.1 535.2 880.1 525.1 870.8 517.5 861.6 517.5ZM1136.4 419.1C1136.4 469.6 1136.4 494.8 1125.5 517.5 1112 544.5 1086 559.6 1060.7 559.6 1029.6 559.6 1008.6 539.4 1008.6 510 1008.6 492.3 1017 472.1 1041.4 454.5 1070.8 431.8 1107 421.7 1128.9 408.2 1131.4 406.5 1132.2 405.7 1133.9 405.7 1135.6 405.7 1136.4 407.4 1136.4 410.7V419.1ZM1305.5 562.1C1267.6 560.4 1267.6 536.9 1267.6 483.9 1267.6 429.2 1271.8 378.8 1271.8 322.4 1271.8 219.8 1170.9 180.3 1084.3 180.3 1041.4 180.3 951.4 188.7 923.6 224 911.9 238.3 907.7 264.4 907.7 287.1 907.7 326.6 916.9 340.1 944.7 340.1 980.8 340.1 984.2 292.1 1030.5 261 1044.8 250.9 1062.4 245 1081.8 245 1116.2 245 1136.4 265.2 1136.4 294.7 1136.4 332.5 1100.3 353.5 1073.3 366.2 1033.8 383.8 975.8 399 934.6 423.3 893.4 447.7 874 487.3 874 525.9 874 601.6 940.5 637.8 1006.9 637.8 1057.4 637.8 1110.4 617.6 1144 573.9 1146.5 570.5 1147.4 569.7 1148.2 569.7 1149.9 569.7 1149.9 571.4 1150.7 574.7 1161.7 619.3 1197.8 637.8 1234 637.8 1259.2 637.8 1287.8 629.4 1306.3 614.3 1317.2 605 1326.5 593.2 1326.5 580.6 1326.5 568 1318.1 563 1305.5 562.1ZM1701.1 534.4C1701.1 522.6 1691.8 516.7 1683.4 516.7 1663.2 516.7 1630.4 552.9 1575.7 552.9 1482.4 552.9 1441.2 458.7 1441.2 376.2 1441.2 300.6 1479 241.7 1537.1 241.7 1572.4 241.7 1589.2 264.4 1605.2 286.3 1621.2 308.1 1628.7 330.8 1651.4 330.8 1680.9 330.8 1686.8 303.1 1686.8 271.1 1686.8 250.9 1681.7 228.2 1668.3 213.1 1643 185.3 1590 180.3 1557.2 180.3 1410.1 180.3 1314.2 293 1314.2 430.9 1314.2 554.5 1396.6 637.8 1520.2 637.8 1579.1 637.8 1626.2 619.3 1657.3 594.1 1685.1 571.4 1701.1 548.7 1701.1 534.4ZM2201.3 581.5C2185.3 572.2 2174.4 559.6 2170.2 546.1 2166.8 534.4 2161.8 515.9 2161.8 457V353.5C2161.8 308.1 2155.9 270.3 2136.5 241.7 2109.6 199.6 2063.4 180.3 2018.8 180.3 1966.6 180.3 1917 202.2 1882.5 250.9 1880.9 253.5 1879.2 255.1 1877.5 255.1 1875.8 255.1 1874.1 253.5 1874.1 249.2V28.9C1874.1 6.2 1863.2 0.3 1852.3 0.3 1843.9 0.3 1835.4 3.7 1830.4 5.4 1800.1 17.1 1753.9 30.6 1715.2 39.8 1695.8 44 1686.6 51.6 1686.6 63.4 1686.6 77.7 1704.2 81 1713.5 85.2 1729.5 92.8 1738.7 100.4 1743.8 113.8 1748.8 127.3 1749.7 145 1749.7 169.4V457C1749.7 515.9 1745.5 534.4 1741.2 546.1 1737 559.6 1727 572.2 1710.1 581.5 1699.2 588.2 1689.9 594.1 1689.9 606.7 1689.9 621 1703.4 628.6 1721.9 628.6H1901.9C1920.4 628.6 1934.7 621 1934.7 606.7 1934.7 594.1 1924.6 588.2 1913.7 581.5 1896.8 572.2 1886.7 559.6 1882.5 546.1 1878.3 534.4 1874.1 515.9 1874.1 457 1874.1 371.2 1883.4 325.8 1912 298 1928.8 281.2 1949.8 275.3 1967.5 275.3 2014.6 275.3 2035.6 309 2035.6 353.5V457C2035.6 515.9 2031.4 534.4 2027.2 546.1 2022.2 559.6 2012.9 571.4 1996.1 581.5 1985.1 588.2 1975.1 594.1 1975.1 606.7 1975.1 621 1989.4 628.6 2007.9 628.6H2189.5C2208 628.6 2222.3 621 2222.3 606.7 2222.3 594.1 2213.1 588.2 2201.3 581.5ZM2666.4 189.5H2531C2515 189.5 2498.2 195.4 2498.2 212.2 2498.2 238.3 2542.8 230.7 2542.8 281.2 2542.8 297.2 2538.6 321.6 2522.6 359.4L2471.3 482.2C2469.6 486.4 2468.8 487.3 2467.1 487.3 2465.4 487.3 2464.6 486.4 2462.9 482.2 2462.9 482.2 2390.6 318.2 2380.5 295.5 2375.4 283.7 2371.2 272.8 2371.2 264.4 2371.2 246.7 2383.8 238.3 2393.9 233.3 2404 228.2 2413.3 223.2 2413.3 210.6 2413.3 197.1 2400.6 189.5 2383.8 189.5H2203.8C2179.5 189.5 2171.9 200.5 2171.9 212.2 2171.9 222.3 2178.6 228.2 2187 232.4 2195.4 236.6 2206.4 240.8 2213.9 248.4 2228.2 262.7 2233.3 273.6 2249.3 311.5L2391.4 645.4C2393.1 649.6 2393.1 652.1 2393.1 652.9 2393.1 653.8 2393.1 657.1 2388.9 663.9 2376.3 683.2 2360.3 699.2 2335 699.2 2285.4 699.2 2275.3 648.7 2243.4 648.7 2209.7 648.7 2201.3 681.5 2201.3 705.9 2201.3 758.1 2237.5 790.9 2293 790.9 2398.1 790.9 2457.8 692.5 2492.3 609.2 2520.1 541.9 2558.8 441.8 2589.9 370.4 2602.5 340.1 2616.8 305.6 2634.5 279.5 2656.3 247.6 2674 240.8 2686.6 231.6 2694.2 226.5 2699.2 220.7 2699.2 211.4 2699.2 196.3 2684.1 189.5 2666.4 189.5Z" fill="#214948"/></svg>